<svg xmlns="http://www.w3.org/2000/svg" xmlns:xlink="http://www.w3.org/1999/xlink" width="45" zoomAndPan="magnify" viewBox="0 0 33.75 33.749999" height="45" preserveAspectRatio="xMidYMid meet" version="1.0"><defs><clipPath id="9cbf3244ae"><path d="M 0.335938 23 L 10 23 L 10 33 L 0.335938 33 Z M 0.335938 23 " clip-rule="nonzero"/></clipPath></defs><g clip-path="url(#9cbf3244ae)"><path fill="#73b644" d="M 9.785156 28.328125 C 9.785156 30.835938 7.796875 32.851562 5.332031 32.851562 C 2.875 32.851562 0.890625 30.835938 0.890625 28.328125 C 0.890625 25.820312 2.875 23.804688 5.332031 23.804688 C 7.796875 23.804688 9.785156 25.820312 9.785156 28.328125 Z M 9.785156 28.328125 " fill-opacity="1" fill-rule="evenodd"/></g><path fill="#73b644" d="M 32.242188 0.507812 L 29.296875 0.507812 L 16.738281 14.460938 L 4.121094 0.507812 L 1.183594 0.507812 L 1.183594 23.496094 C 2.289062 22.511719 3.742188 21.910156 5.332031 21.910156 C 6.917969 21.910156 8.363281 22.511719 9.488281 23.496094 L 9.488281 17.972656 L 16.238281 25.15625 L 17.1875 25.15625 L 23.941406 17.972656 L 23.941406 32.851562 L 32.242188 32.851562 L 32.242188 25.308594 C 30.804688 22.777344 29.984375 19.851562 29.984375 16.722656 C 29.984375 13.589844 30.804688 10.667969 32.242188 8.136719 Z M 32.242188 0.507812 " fill-opacity="1" fill-rule="evenodd"/></svg>