<svg xmlns="http://www.w3.org/2000/svg" xmlns:xlink="http://www.w3.org/1999/xlink" width="1050" zoomAndPan="magnify" viewBox="0 0 787.5 307.499996" height="410" preserveAspectRatio="xMidYMid meet" version="1.0"><defs><g/><clipPath id="3840b8bf4d"><path d="M 0.390625 55 L 113 55 L 113 233 L 0.390625 233 Z M 0.390625 55 " clip-rule="nonzero"/></clipPath><clipPath id="bf91e90bf0"><path d="M 0.390625 0 L 199 0 L 199 206 L 0.390625 206 Z M 0.390625 0 " clip-rule="nonzero"/></clipPath><clipPath id="65894f33f1"><path d="M 110.953125 171.769531 L 135.679688 171.769531 L 135.679688 196.492188 L 110.953125 196.492188 Z M 110.953125 171.769531 " clip-rule="nonzero"/></clipPath><clipPath id="05bbf6e467"><path d="M 0.390625 57 L 198 57 L 198 259 L 0.390625 259 Z M 0.390625 57 " clip-rule="nonzero"/></clipPath><clipPath id="41dee67ff1"><path d="M 49 110 L 251 110 L 251 307 L 49 307 Z M 49 110 " clip-rule="nonzero"/></clipPath><clipPath id="916be9ac4d"><path d="M 0.390625 110 L 197 110 L 197 307 L 0.390625 307 Z M 0.390625 110 " clip-rule="nonzero"/></clipPath><clipPath id="937a5c9648"><path d="M 0.390625 0 L 199 0 L 199 260 L 0.390625 260 Z M 0.390625 0 " clip-rule="nonzero"/></clipPath><clipPath id="1178cfa6ac"><path d="M 0.390625 109 L 197 109 L 197 307 L 0.390625 307 Z M 0.390625 109 " clip-rule="nonzero"/></clipPath><clipPath id="723174fbed"><path d="M 47 108 L 306 108 L 306 307 L 47 307 Z M 47 108 " clip-rule="nonzero"/></clipPath></defs><g fill="#000000" fill-opacity="1"><g transform="translate(254.034808, 211.03223)"><g><path d="M 56.683594 2.816406 L 62.6875 2.816406 L 118.246094 -134.199219 L 87.277344 -134.199219 L 69.257812 -88.589844 L 59.6875 -61.75 L 49.925781 -89.527344 L 32.09375 -134.199219 L 1.125 -134.199219 Z M 56.683594 2.816406 "/></g></g></g><g fill="#000000" fill-opacity="1"><g transform="translate(373.58675, 211.03223)"><g><path d="M 79.582031 1.875 C 171.925781 1.875 171.925781 -136.453125 79.582031 -136.453125 C -12.761719 -136.453125 -12.761719 1.875 79.582031 1.875 Z M 79.582031 -25.902344 C 25.902344 -25.902344 25.902344 -108.859375 79.582031 -108.859375 C 133.261719 -108.859375 133.261719 -25.902344 79.582031 -25.902344 Z M 79.582031 -25.902344 "/></g></g></g><g fill="#000000" fill-opacity="1"><g transform="translate(532.55142, 211.03223)"><g><path d="M 15.015625 -134.199219 L 15.015625 0 L 84.460938 0 L 84.460938 -26.839844 L 41.855469 -26.839844 L 41.855469 -134.199219 Z M 15.015625 -134.199219 "/></g></g></g><g fill="#000000" fill-opacity="1"><g transform="translate(625.077487, 211.03223)"><g><path d="M 41.855469 0 L 41.855469 -134.199219 L 15.015625 -134.199219 L 15.015625 0 Z M 41.855469 0 "/></g></g></g><g fill="#000000" fill-opacity="1"><g transform="translate(682.132088, 211.03223)"><g><path d="M 64.003906 0 L 64.003906 -107.359375 L 97.410156 -107.359375 L 97.410156 -134.011719 L 3.753906 -134.011719 L 3.753906 -107.359375 L 37.164062 -107.359375 L 37.164062 0 Z M 64.003906 0 "/></g></g></g><g clip-path="url(#3840b8bf4d)"><path stroke-linecap="round" transform="matrix(-9.596924, -9.596924, 9.288904, -9.288904, 41.615113, 161.67327)" fill="none" stroke-linejoin="miter" d="M 0.500003 -0.0000234845 L 3.199028 -0.0000234845 " stroke="#000000" stroke-width="1" stroke-opacity="1" stroke-miterlimit="4"/></g><g clip-path="url(#bf91e90bf0)"><path stroke-linecap="round" transform="matrix(9.555801, -9.555801, 9.288904, 9.288904, 5.036665, 134.473323)" fill="none" stroke-linejoin="miter" d="M 0.500102 0.0000931676 L 12.363601 -0.000117097 " stroke="#000000" stroke-width="1" stroke-opacity="1" stroke-miterlimit="4"/></g><path stroke-linecap="round" transform="matrix(-9.520255, -9.520255, 9.288904, -9.288904, 240.930136, 133.394156)" fill="none" stroke-linejoin="miter" d="M 0.499966 0.000165972 L 12.244457 -0.0000442926 " stroke="#000000" stroke-width="1" stroke-opacity="1" stroke-miterlimit="4"/><path stroke-linecap="round" transform="matrix(-9.476822, 9.476822, -9.288904, -9.288904, 241.146624, 125.168926)" fill="none" stroke-linejoin="miter" d="M 0.49984 -0.0000460928 L 3.245849 -0.0000460928 " stroke="#000000" stroke-width="1" stroke-opacity="1" stroke-miterlimit="4"/><g clip-path="url(#65894f33f1)"><path fill="#000000" d="M 123.316406 171.769531 C 116.488281 171.769531 110.953125 177.300781 110.953125 184.128906 C 110.953125 190.957031 116.488281 196.492188 123.316406 196.492188 C 130.144531 196.492188 135.679688 190.957031 135.679688 184.128906 C 135.679688 177.300781 130.144531 171.769531 123.316406 171.769531 " fill-opacity="1" fill-rule="nonzero"/></g><g clip-path="url(#05bbf6e467)"><path stroke-linecap="round" transform="matrix(-9.571917, 9.571917, -9.288904, -9.288904, 126.504977, 127.781257)" fill="none" stroke-linejoin="miter" d="M 0.499972 0.0000579898 L 5.810714 -0.000152275 " stroke="#000000" stroke-width="1" stroke-opacity="1" stroke-miterlimit="4"/></g><path stroke-linecap="round" transform="matrix(9.546781, 9.546781, -9.288904, 9.288904, 118.735013, 126.702718)" fill="none" stroke-linejoin="miter" d="M 0.499993 0.000056277 L 5.937444 0.000056277 " stroke="#000000" stroke-width="1" stroke-opacity="1" stroke-miterlimit="4"/><g clip-path="url(#41dee67ff1)"><path stroke-linecap="round" transform="matrix(-9.514131, 9.514131, -9.288904, -9.288904, 180.120343, 180.730001)" fill="none" stroke-linejoin="miter" d="M 0.500064 -0.0000655911 L 5.793177 -0.0000655911 " stroke="#000000" stroke-width="1" stroke-opacity="1" stroke-miterlimit="4"/></g><g clip-path="url(#916be9ac4d)"><path stroke-linecap="round" transform="matrix(9.498406, 9.498406, -9.288904, 9.288904, 66.331711, 180.67374)" fill="none" stroke-linejoin="miter" d="M 0.500003 -0.000117632 L 5.803318 0.0000926325 " stroke="#000000" stroke-width="1" stroke-opacity="1" stroke-miterlimit="4"/></g><g clip-path="url(#937a5c9648)"><path stroke-linecap="round" transform="matrix(9.543917, -9.543917, 9.288904, 9.288904, 11.16506, 188.489874)" fill="none" stroke-linejoin="miter" d="M 0.499982 0.0000708358 L 11.768817 -0.000139429 " stroke="#000000" stroke-width="1" stroke-opacity="1" stroke-miterlimit="4"/></g><path stroke-linecap="round" transform="matrix(-9.540655, -9.540655, 9.288904, -9.288904, 233.797486, 186.487086)" fill="none" stroke-linejoin="miter" d="M 0.500091 0.00011305 L 11.439297 0.00011305 " stroke="#000000" stroke-width="1" stroke-opacity="1" stroke-miterlimit="4"/><g clip-path="url(#1178cfa6ac)"><path stroke-linecap="round" transform="matrix(-9.518675, -9.518675, 9.288904, -9.288904, 126.152261, 295.314582)" fill="none" stroke-linejoin="miter" d="M 0.499945 0.000116567 L 11.578291 -0.0000936978 " stroke="#000000" stroke-width="1" stroke-opacity="1" stroke-miterlimit="4"/></g><g clip-path="url(#723174fbed)"><path stroke-linecap="round" transform="matrix(9.541916, -9.541916, 9.288904, 9.288904, 118.412936, 295.41985)" fill="none" stroke-linejoin="miter" d="M 0.500008 -0.0000406666 L 11.715941 0.000169598 " stroke="#000000" stroke-width="1" stroke-opacity="1" stroke-miterlimit="4"/></g></svg>