<?xml version="1.0" standalone="no"?>
<!DOCTYPE svg PUBLIC "-//W3C//DTD SVG 1.1//EN" "http://www.w3.org/Graphics/SVG/1.1/DTD/svg11.dtd">
<svg xmlns="http://www.w3.org/2000/svg" xmlns:xlink="http://www.w3.org/1999/xlink" width="750" zoomAndPan="magnify" viewBox="0 0 750 363.749991" height="363.75" preserveAspectRatio="xMidYMid meet" version="1.0"><defs><g/><clipPath id="dd83e4cad7"><path d="M 3.921875 21.722656 L 287 21.722656 L 287 341.042969 L 3.921875 341.042969 Z M 3.921875 21.722656 " clip-rule="nonzero"/></clipPath></defs><g clip-path="url(#dd83e4cad7)"><path fill="#8338ec" d="M 170.066406 21.722656 C 159.882812 21.722656 151.613281 29.972656 151.613281 40.144531 L 151.613281 156.816406 L 139.3125 156.816406 L 139.3125 64.707031 C 139.3125 54.539062 131.042969 46.285156 120.859375 46.285156 C 110.671875 46.285156 102.402344 54.539062 102.402344 64.707031 L 102.402344 240.03125 C 102.402344 240.03125 66.972656 217.148438 49.132812 209.398438 C 44.164062 207.238281 38.972656 205.945312 33.707031 205.945312 C 6.183594 205.945312 3.984375 230.507812 3.984375 230.507812 L 53.191406 267.351562 L 92.574219 314.535156 C 106.601562 331.335938 127.386719 341.042969 149.285156 341.042969 L 237.734375 341.042969 C 264.910156 341.042969 286.941406 319.046875 286.941406 291.914062 L 286.941406 101.550781 C 286.941406 91.382812 278.675781 83.128906 268.488281 83.128906 C 258.300781 83.128906 250.035156 91.382812 250.035156 101.550781 L 250.035156 156.816406 L 237.734375 156.816406 L 237.734375 64.707031 C 237.734375 54.539062 229.464844 46.285156 219.277344 46.285156 C 209.09375 46.285156 200.824219 54.539062 200.824219 64.707031 L 200.824219 156.816406 L 188.523438 156.816406 L 188.523438 40.144531 C 188.523438 29.972656 180.253906 21.722656 170.066406 21.722656 Z M 170.066406 205.945312 C 180.179688 205.945312 189.0625 210.878906 194.671875 218.394531 C 200.285156 210.878906 209.164062 205.945312 219.277344 205.945312 C 236.269531 205.945312 250.035156 219.6875 250.035156 236.648438 C 250.035156 267.351562 194.671875 304.195312 194.671875 304.195312 C 194.671875 304.195312 139.3125 267.351562 139.3125 236.648438 C 139.3125 219.6875 153.078125 205.945312 170.066406 205.945312 Z M 170.066406 205.945312 " fill-opacity="1" fill-rule="nonzero"/></g><g fill="#000000" fill-opacity="1"><g transform="translate(348.421496, 128.948986)"><g><path d="M 28.105469 -49.027344 L 73.726562 1.890625 L 78.515625 1.890625 L 78.515625 -89.984375 L 60.367188 -89.984375 L 60.367188 -39.070312 L 14.871094 -92 L 10.082031 -92 L 10.082031 0 L 28.105469 0 Z M 28.105469 -49.027344 "/></g></g></g><g fill="#000000" fill-opacity="1"><g transform="translate(437.131509, 128.948986)"><g><path d="M 53.4375 1.261719 C 115.441406 1.261719 115.441406 -91.625 53.4375 -91.625 C -8.570312 -91.625 -8.570312 1.261719 53.4375 1.261719 Z M 53.4375 -17.390625 C 17.390625 -17.390625 17.390625 -73.097656 53.4375 -73.097656 C 89.480469 -73.097656 89.480469 -17.390625 53.4375 -17.390625 Z M 53.4375 -17.390625 "/></g></g></g><g fill="#000000" fill-opacity="1"><g transform="translate(543.860742, 128.948986)"><g><path d="M 37.683594 1.890625 L 40.832031 1.890625 L 57.21875 -38.4375 L 73.726562 1.511719 L 77.003906 1.511719 L 113.804688 -90.109375 L 93.515625 -90.109375 L 75.367188 -44.109375 L 57.722656 -89.230469 L 56.839844 -89.230469 L 39.195312 -44.109375 L 21.046875 -90.109375 L 0.757812 -90.109375 Z M 37.683594 1.890625 "/></g></g></g><g fill="#000000" fill-opacity="1"><g transform="translate(658.528529, 128.948986)"><g><path d="M 56.714844 0 L 56.714844 -18.023438 L 28.105469 -18.023438 L 28.105469 -36.042969 L 51.796875 -36.042969 L 51.796875 -54.066406 L 28.105469 -54.066406 L 28.105469 -72.089844 L 55.199219 -72.089844 L 55.199219 -90.109375 L 10.082031 -90.109375 L 10.082031 0 Z M 56.714844 0 "/></g></g></g><g fill="#000000" fill-opacity="1"><g transform="translate(348.421496, 242.183136)"><g><path d="M 37.683594 1.890625 L 40.832031 1.890625 L 57.21875 -38.4375 L 73.726562 1.511719 L 77.003906 1.511719 L 113.804688 -90.109375 L 93.515625 -90.109375 L 75.367188 -44.109375 L 57.722656 -89.230469 L 56.839844 -89.230469 L 39.195312 -44.109375 L 21.046875 -90.109375 L 0.757812 -90.109375 Z M 37.683594 1.890625 "/></g></g></g><g fill="#000000" fill-opacity="1"><g transform="translate(463.089283, 242.183136)"><g><path d="M 53.4375 1.261719 C 115.441406 1.261719 115.441406 -91.625 53.4375 -91.625 C -8.570312 -91.625 -8.570312 1.261719 53.4375 1.261719 Z M 53.4375 -17.390625 C 17.390625 -17.390625 17.390625 -73.097656 53.4375 -73.097656 C 89.480469 -73.097656 89.480469 -17.390625 53.4375 -17.390625 Z M 53.4375 -17.390625 "/></g></g></g><g fill="#000000" fill-opacity="1"><g transform="translate(569.818516, 242.183136)"><g><path d="M 10.082031 -90.109375 L 10.082031 0 L 56.714844 0 L 56.714844 -18.023438 L 28.105469 -18.023438 L 28.105469 -90.109375 Z M 10.082031 -90.109375 "/></g></g></g><g fill="#000000" fill-opacity="1"><g transform="translate(631.940722, 242.183136)"><g><path d="M 53.4375 1.261719 C 115.441406 1.261719 115.441406 -91.625 53.4375 -91.625 C -8.570312 -91.625 -8.570312 1.261719 53.4375 1.261719 Z M 53.4375 -17.390625 C 17.390625 -17.390625 17.390625 -73.097656 53.4375 -73.097656 C 89.480469 -73.097656 89.480469 -17.390625 53.4375 -17.390625 Z M 53.4375 -17.390625 "/></g></g></g><g fill="#000000" fill-opacity="1"><g transform="translate(348.421496, 329.742206)"><g><path d="M 14.453125 0.328125 C 12.234375 0.328125 10.234375 -0.0546875 8.453125 -0.828125 C 6.679688 -1.609375 5.289062 -2.710938 4.28125 -4.140625 C 3.269531 -5.566406 2.765625 -7.226562 2.765625 -9.125 L 8.5625 -9.125 C 8.6875 -7.695312 9.25 -6.523438 10.25 -5.609375 C 11.25 -4.691406 12.648438 -4.234375 14.453125 -4.234375 C 16.328125 -4.234375 17.785156 -4.679688 18.828125 -5.578125 C 19.878906 -6.484375 20.40625 -7.648438 20.40625 -9.078125 C 20.40625 -10.191406 20.078125 -11.097656 19.421875 -11.796875 C 18.773438 -12.492188 17.96875 -13.03125 17 -13.40625 C 16.03125 -13.789062 14.691406 -14.207031 12.984375 -14.65625 C 10.828125 -15.21875 9.070312 -15.789062 7.71875 -16.375 C 6.375 -16.96875 5.226562 -17.878906 4.28125 -19.109375 C 3.332031 -20.347656 2.859375 -22 2.859375 -24.0625 C 2.859375 -25.96875 3.332031 -27.632812 4.28125 -29.0625 C 5.226562 -30.488281 6.554688 -31.582031 8.265625 -32.34375 C 9.984375 -33.101562 11.96875 -33.484375 14.21875 -33.484375 C 17.425781 -33.484375 20.050781 -32.679688 22.09375 -31.078125 C 24.132812 -29.484375 25.269531 -27.289062 25.5 -24.5 L 19.5 -24.5 C 19.40625 -25.695312 18.832031 -26.722656 17.78125 -27.578125 C 16.738281 -28.441406 15.363281 -28.875 13.65625 -28.875 C 12.09375 -28.875 10.820312 -28.476562 9.84375 -27.6875 C 8.863281 -26.894531 8.375 -25.75 8.375 -24.25 C 8.375 -23.238281 8.679688 -22.40625 9.296875 -21.75 C 9.910156 -21.101562 10.691406 -20.585938 11.640625 -20.203125 C 12.597656 -19.828125 13.898438 -19.421875 15.546875 -18.984375 C 17.734375 -18.378906 19.515625 -17.773438 20.890625 -17.171875 C 22.273438 -16.566406 23.453125 -15.640625 24.421875 -14.390625 C 25.390625 -13.140625 25.875 -11.46875 25.875 -9.375 C 25.875 -7.6875 25.421875 -6.097656 24.515625 -4.609375 C 23.609375 -3.117188 22.289062 -1.921875 20.5625 -1.015625 C 18.84375 -0.117188 16.804688 0.328125 14.453125 0.328125 Z M 14.453125 0.328125 "/></g></g></g><g fill="#000000" fill-opacity="1"><g transform="translate(377.14661, 329.742206)"><g><path d="M 9.890625 -21.78125 L 9.890625 -7.28125 C 9.890625 -6.289062 10.117188 -5.582031 10.578125 -5.15625 C 11.035156 -4.726562 11.820312 -4.515625 12.9375 -4.515625 L 16.265625 -4.515625 L 16.265625 0 L 11.984375 0 C 9.546875 0 7.675781 -0.566406 6.375 -1.703125 C 5.070312 -2.847656 4.421875 -4.707031 4.421875 -7.28125 L 4.421875 -21.78125 L 1.328125 -21.78125 L 1.328125 -26.203125 L 4.421875 -26.203125 L 4.421875 -32.71875 L 9.890625 -32.71875 L 9.890625 -26.203125 L 16.265625 -26.203125 L 16.265625 -21.78125 Z M 9.890625 -21.78125 "/></g></g></g><g fill="#000000" fill-opacity="1"><g transform="translate(394.838236, 329.742206)"><g><path d="M 14.9375 0.421875 C 12.457031 0.421875 10.21875 -0.140625 8.21875 -1.265625 C 6.226562 -2.390625 4.660156 -3.972656 3.515625 -6.015625 C 2.378906 -8.054688 1.8125 -10.425781 1.8125 -13.125 C 1.8125 -15.789062 2.394531 -18.15625 3.5625 -20.21875 C 4.738281 -22.28125 6.34375 -23.863281 8.375 -24.96875 C 10.40625 -26.082031 12.671875 -26.640625 15.171875 -26.640625 C 17.679688 -26.640625 19.945312 -26.082031 21.96875 -24.96875 C 24 -23.863281 25.597656 -22.28125 26.765625 -20.21875 C 27.941406 -18.15625 28.53125 -15.789062 28.53125 -13.125 C 28.53125 -10.457031 27.925781 -8.09375 26.71875 -6.03125 C 25.519531 -3.976562 23.878906 -2.390625 21.796875 -1.265625 C 19.722656 -0.140625 17.4375 0.421875 14.9375 0.421875 Z M 14.9375 -4.28125 C 16.332031 -4.28125 17.640625 -4.613281 18.859375 -5.28125 C 20.078125 -5.945312 21.066406 -6.945312 21.828125 -8.28125 C 22.585938 -9.613281 22.96875 -11.226562 22.96875 -13.125 C 22.96875 -15.03125 22.601562 -16.640625 21.875 -17.953125 C 21.144531 -19.265625 20.175781 -20.253906 18.96875 -20.921875 C 17.769531 -21.585938 16.472656 -21.921875 15.078125 -21.921875 C 13.679688 -21.921875 12.390625 -21.585938 11.203125 -20.921875 C 10.015625 -20.253906 9.070312 -19.265625 8.375 -17.953125 C 7.675781 -16.640625 7.328125 -15.03125 7.328125 -13.125 C 7.328125 -10.300781 8.046875 -8.117188 9.484375 -6.578125 C 10.929688 -5.046875 12.75 -4.28125 14.9375 -4.28125 Z M 14.9375 -4.28125 "/></g></g></g><g fill="#000000" fill-opacity="1"><g transform="translate(425.180344, 329.742206)"><g><path d="M 38.765625 -26.203125 L 30.625 0 L 24.921875 0 L 19.640625 -19.359375 L 14.359375 0 L 8.65625 0 L 0.46875 -26.203125 L 6 -26.203125 L 11.46875 -5.140625 L 17.03125 -26.203125 L 22.6875 -26.203125 L 28.015625 -5.234375 L 33.4375 -26.203125 Z M 38.765625 -26.203125 "/></g></g></g><g fill="#000000" fill-opacity="1"><g transform="translate(464.415798, 329.742206)"><g><path d="M 1.765625 -13.21875 C 1.765625 -15.851562 2.3125 -18.1875 3.40625 -20.21875 C 4.5 -22.25 5.988281 -23.828125 7.875 -24.953125 C 9.757812 -26.078125 11.84375 -26.640625 14.125 -26.640625 C 16.1875 -26.640625 17.984375 -26.234375 19.515625 -25.421875 C 21.054688 -24.609375 22.285156 -23.601562 23.203125 -22.40625 L 23.203125 -26.203125 L 28.6875 -26.203125 L 28.6875 0 L 23.203125 0 L 23.203125 -3.90625 C 22.285156 -2.664062 21.035156 -1.632812 19.453125 -0.8125 C 17.867188 0.0078125 16.0625 0.421875 14.03125 0.421875 C 11.78125 0.421875 9.71875 -0.15625 7.84375 -1.3125 C 5.976562 -2.46875 4.5 -4.082031 3.40625 -6.15625 C 2.3125 -8.238281 1.765625 -10.59375 1.765625 -13.21875 Z M 23.203125 -13.125 C 23.203125 -14.9375 22.828125 -16.503906 22.078125 -17.828125 C 21.335938 -19.160156 20.363281 -20.175781 19.15625 -20.875 C 17.957031 -21.570312 16.660156 -21.921875 15.265625 -21.921875 C 13.867188 -21.921875 12.566406 -21.578125 11.359375 -20.890625 C 10.160156 -20.210938 9.1875 -19.21875 8.4375 -17.90625 C 7.695312 -16.59375 7.328125 -15.03125 7.328125 -13.21875 C 7.328125 -11.414062 7.695312 -9.832031 8.4375 -8.46875 C 9.1875 -7.101562 10.171875 -6.0625 11.390625 -5.34375 C 12.609375 -4.632812 13.898438 -4.28125 15.265625 -4.28125 C 16.660156 -4.28125 17.957031 -4.628906 19.15625 -5.328125 C 20.363281 -6.023438 21.335938 -7.046875 22.078125 -8.390625 C 22.828125 -9.742188 23.203125 -11.320312 23.203125 -13.125 Z M 23.203125 -13.125 "/></g></g></g><g fill="#000000" fill-opacity="1"><g transform="translate(496.660231, 329.742206)"><g><path d="M 8.984375 -22.40625 C 9.773438 -23.738281 10.828125 -24.773438 12.140625 -25.515625 C 13.460938 -26.265625 15.03125 -26.640625 16.84375 -26.640625 L 16.84375 -21.015625 L 15.453125 -21.015625 C 13.328125 -21.015625 11.71875 -20.472656 10.625 -19.390625 C 9.53125 -18.316406 8.984375 -16.453125 8.984375 -13.796875 L 8.984375 0 L 3.5625 0 L 3.5625 -26.203125 L 8.984375 -26.203125 Z M 8.984375 -22.40625 "/></g></g></g><g fill="#000000" fill-opacity="1"><g transform="translate(514.922555, 329.742206)"><g><path d="M 8.375 -4.421875 L 20.265625 -4.421875 L 20.265625 0 L 2.09375 0 L 2.09375 -4.421875 L 14.03125 -21.78125 L 2.09375 -21.78125 L 2.09375 -26.203125 L 20.265625 -26.203125 L 20.265625 -21.78125 Z M 8.375 -4.421875 "/></g></g></g><g fill="#000000" fill-opacity="1"><g transform="translate(537.322446, 329.742206)"><g><path d="M 27.15625 -26.203125 L 11.078125 12.3125 L 5.46875 12.3125 L 10.796875 -0.421875 L 0.46875 -26.203125 L 6.515625 -26.203125 L 13.890625 -6.234375 L 21.546875 -26.203125 Z M 27.15625 -26.203125 "/></g></g></g><g fill="#000000" fill-opacity="1"><g transform="translate(565.001298, 329.742206)"><g><path d="M 13.078125 0.421875 C 11.015625 0.421875 9.164062 0.0507812 7.53125 -0.6875 C 5.90625 -1.4375 4.613281 -2.453125 3.65625 -3.734375 C 2.707031 -5.015625 2.203125 -6.445312 2.140625 -8.03125 L 7.75 -8.03125 C 7.84375 -6.925781 8.375 -6 9.34375 -5.25 C 10.3125 -4.507812 11.523438 -4.140625 12.984375 -4.140625 C 14.503906 -4.140625 15.679688 -4.429688 16.515625 -5.015625 C 17.359375 -5.597656 17.78125 -6.351562 17.78125 -7.28125 C 17.78125 -8.257812 17.3125 -8.984375 16.375 -9.453125 C 15.445312 -9.929688 13.96875 -10.457031 11.9375 -11.03125 C 9.96875 -11.570312 8.363281 -12.09375 7.125 -12.59375 C 5.894531 -13.101562 4.828125 -13.878906 3.921875 -14.921875 C 3.015625 -15.972656 2.5625 -17.359375 2.5625 -19.078125 C 2.5625 -20.472656 2.972656 -21.75 3.796875 -22.90625 C 4.628906 -24.0625 5.8125 -24.972656 7.34375 -25.640625 C 8.882812 -26.304688 10.65625 -26.640625 12.65625 -26.640625 C 15.632812 -26.640625 18.035156 -25.882812 19.859375 -24.375 C 21.679688 -22.863281 22.65625 -20.8125 22.78125 -18.21875 L 17.359375 -18.21875 C 17.265625 -19.382812 16.789062 -20.316406 15.9375 -21.015625 C 15.082031 -21.710938 13.925781 -22.0625 12.46875 -22.0625 C 11.039062 -22.0625 9.941406 -21.789062 9.171875 -21.25 C 8.410156 -20.71875 8.03125 -20.007812 8.03125 -19.125 C 8.03125 -18.425781 8.285156 -17.835938 8.796875 -17.359375 C 9.304688 -16.878906 9.925781 -16.503906 10.65625 -16.234375 C 11.382812 -15.972656 12.460938 -15.632812 13.890625 -15.21875 C 15.785156 -14.707031 17.34375 -14.191406 18.5625 -13.671875 C 19.789062 -13.148438 20.847656 -12.378906 21.734375 -11.359375 C 22.617188 -10.347656 23.078125 -9.003906 23.109375 -7.328125 C 23.109375 -5.835938 22.695312 -4.503906 21.875 -3.328125 C 21.050781 -2.148438 19.882812 -1.226562 18.375 -0.5625 C 16.875 0.09375 15.109375 0.421875 13.078125 0.421875 Z M 13.078125 0.421875 "/></g></g></g><g fill="#000000" fill-opacity="1"><g transform="translate(590.397359, 329.742206)"><g><path d="M 8.375 -4.421875 L 20.265625 -4.421875 L 20.265625 0 L 2.09375 0 L 2.09375 -4.421875 L 14.03125 -21.78125 L 2.09375 -21.78125 L 2.09375 -26.203125 L 20.265625 -26.203125 L 20.265625 -21.78125 Z M 8.375 -4.421875 "/></g></g></g><g fill="#000000" fill-opacity="1"><g transform="translate(612.79725, 329.742206)"><g><path d="M 27.59375 -13.75 C 27.59375 -12.757812 27.523438 -11.867188 27.390625 -11.078125 L 7.375 -11.078125 C 7.53125 -8.984375 8.304688 -7.300781 9.703125 -6.03125 C 11.097656 -4.769531 12.8125 -4.140625 14.84375 -4.140625 C 17.757812 -4.140625 19.816406 -5.359375 21.015625 -7.796875 L 26.875 -7.796875 C 26.082031 -5.390625 24.644531 -3.414062 22.5625 -1.875 C 20.488281 -0.34375 17.914062 0.421875 14.84375 0.421875 C 12.332031 0.421875 10.085938 -0.140625 8.109375 -1.265625 C 6.128906 -2.390625 4.578125 -3.972656 3.453125 -6.015625 C 2.328125 -8.054688 1.765625 -10.425781 1.765625 -13.125 C 1.765625 -15.820312 2.3125 -18.191406 3.40625 -20.234375 C 4.5 -22.285156 6.035156 -23.863281 8.015625 -24.96875 C 9.992188 -26.082031 12.269531 -26.640625 14.84375 -26.640625 C 17.3125 -26.640625 19.515625 -26.097656 21.453125 -25.015625 C 23.390625 -23.941406 24.894531 -22.425781 25.96875 -20.46875 C 27.050781 -18.519531 27.59375 -16.28125 27.59375 -13.75 Z M 21.921875 -15.453125 C 21.890625 -17.453125 21.175781 -19.050781 19.78125 -20.25 C 18.382812 -21.457031 16.660156 -22.0625 14.609375 -22.0625 C 12.734375 -22.0625 11.128906 -21.46875 9.796875 -20.28125 C 8.460938 -19.09375 7.671875 -17.484375 7.421875 -15.453125 Z M 21.921875 -15.453125 "/></g></g></g><g fill="#000000" fill-opacity="1"><g transform="translate(642.140611, 329.742206)"><g><path d="M 16.796875 -26.640625 C 18.847656 -26.640625 20.691406 -26.207031 22.328125 -25.34375 C 23.960938 -24.488281 25.238281 -23.222656 26.15625 -21.546875 C 27.070312 -19.867188 27.53125 -17.835938 27.53125 -15.453125 L 27.53125 0 L 22.171875 0 L 22.171875 -14.65625 C 22.171875 -17 21.582031 -18.796875 20.40625 -20.046875 C 19.226562 -21.296875 17.625 -21.921875 15.59375 -21.921875 C 13.570312 -21.921875 11.960938 -21.296875 10.765625 -20.046875 C 9.578125 -18.796875 8.984375 -17 8.984375 -14.65625 L 8.984375 0 L 3.5625 0 L 3.5625 -26.203125 L 8.984375 -26.203125 L 8.984375 -23.203125 C 9.878906 -24.285156 11.015625 -25.128906 12.390625 -25.734375 C 13.765625 -26.335938 15.234375 -26.640625 16.796875 -26.640625 Z M 16.796875 -26.640625 "/></g></g></g><g fill="#000000" fill-opacity="1"><g transform="translate(673.005832, 329.742206)"><g><path d="M 6.328125 -29.671875 C 5.335938 -29.671875 4.507812 -30.003906 3.84375 -30.671875 C 3.1875 -31.335938 2.859375 -32.164062 2.859375 -33.15625 C 2.859375 -34.132812 3.1875 -34.957031 3.84375 -35.625 C 4.507812 -36.289062 5.335938 -36.625 6.328125 -36.625 C 7.273438 -36.625 8.082031 -36.289062 8.75 -35.625 C 9.414062 -34.957031 9.75 -34.132812 9.75 -33.15625 C 9.75 -32.164062 9.414062 -31.335938 8.75 -30.671875 C 8.082031 -30.003906 7.273438 -29.671875 6.328125 -29.671875 Z M 8.984375 -26.203125 L 8.984375 0 L 3.5625 0 L 3.5625 -26.203125 Z M 8.984375 -26.203125 "/></g></g></g><g fill="#000000" fill-opacity="1"><g transform="translate(685.56118, 329.742206)"><g><path d="M 27.59375 -13.75 C 27.59375 -12.757812 27.523438 -11.867188 27.390625 -11.078125 L 7.375 -11.078125 C 7.53125 -8.984375 8.304688 -7.300781 9.703125 -6.03125 C 11.097656 -4.769531 12.8125 -4.140625 14.84375 -4.140625 C 17.757812 -4.140625 19.816406 -5.359375 21.015625 -7.796875 L 26.875 -7.796875 C 26.082031 -5.390625 24.644531 -3.414062 22.5625 -1.875 C 20.488281 -0.34375 17.914062 0.421875 14.84375 0.421875 C 12.332031 0.421875 10.085938 -0.140625 8.109375 -1.265625 C 6.128906 -2.390625 4.578125 -3.972656 3.453125 -6.015625 C 2.328125 -8.054688 1.765625 -10.425781 1.765625 -13.125 C 1.765625 -15.820312 2.3125 -18.191406 3.40625 -20.234375 C 4.5 -22.285156 6.035156 -23.863281 8.015625 -24.96875 C 9.992188 -26.082031 12.269531 -26.640625 14.84375 -26.640625 C 17.3125 -26.640625 19.515625 -26.097656 21.453125 -25.015625 C 23.390625 -23.941406 24.894531 -22.425781 25.96875 -20.46875 C 27.050781 -18.519531 27.59375 -16.28125 27.59375 -13.75 Z M 21.921875 -15.453125 C 21.890625 -17.453125 21.175781 -19.050781 19.78125 -20.25 C 18.382812 -21.457031 16.660156 -22.0625 14.609375 -22.0625 C 12.734375 -22.0625 11.128906 -21.46875 9.796875 -20.28125 C 8.460938 -19.09375 7.671875 -17.484375 7.421875 -15.453125 Z M 21.921875 -15.453125 "/></g></g></g></svg>